<svg xmlns="http://www.w3.org/2000/svg" version="1.1" xmlns:xlink="http://www.w3.org/1999/xlink" width="512" height="512" x="0" y="0" viewBox="0 0 1707 1707" style="enable-background:new 0 0 512 512" xml:space="preserve" fill-rule="evenodd" class=""><g><linearGradient id="a" x1="672.559" x2="1034.1" y1="-14.055" y2="1720.75" gradientUnits="userSpaceOnUse"><stop stop-opacity="1" stop-color="#ff8807" offset="0"></stop><stop stop-opacity="1" stop-color="#ffc278" offset="0.502"></stop><stop stop-opacity="1" stop-color="#ff981a" offset="1"></stop></linearGradient><path fill="url(#a)" d="M1123 1604H656v82c0 11-9 20-21 20s-82-49-97-59l-87 56c-13 9-30-1-30-17v-82h-96c-112 0-203-92-203-204V242C122 109 230 0 363 0h897c37 0 67 30 67 67v1046c144 11 258 132 258 279 0 239-282 367-462 212zm183-33c-35 0-63-28-63-62v-55h-54c-82 0-82-124 0-124h54v-55c0-82 125-82 125 0v55h54c82 0 82 124 0 124h-54v55c0 34-28 62-62 62zm-117-201c-29 0-29 44 0 44 110 0 94-15 94 95 0 29 45 29 45 0 0-110-16-95 94-95 29 0 29-44 0-44-110 0-94 15-94-95 0-29-45-29-45 0 0 110 16 95-94 95zm-176-452H794c-26 0-26-40 0-40h219c27 0 27 40 0 40zm0-113H656c-26 0-26-40 0-40h357c27 0 27 40 0 40zM875 693H656c-26 0-26-40 0-40h220c26 0 26 40-1 40zm138-113H656c-26 0-26-40 0-40h357c27 0 27 40 0 40zm0-113H794c-26 0-26-40 0-40h219c27 0 27 40 0 40zm0-107H656c-26 0-26-40 0-40h357c27 0 27 40 0 40zm86 683H571c-32 0-58-26-58-58V252c0-31 26-57 58-57h528c31 0 57 26 57 57v733c0 32-26 58-57 58zM571 235c-10 0-18 8-18 17v733c0 10 8 18 18 18h528c9 0 17-8 17-18V252c0-9-8-17-17-17zm716 878V67c0-15-12-27-27-27H383v1157h722c47-48 111-79 182-84zm-158 118c-39 47-63 93-63 161 0 132 108 239 240 239s239-107 239-239c0-218-270-322-416-161zm-56 6H325c-90 0-163 73-163 164 0 89 73 163 163 163h96v-77h-45c-26 0-26-40 0-40h656c-6-28-7-56-4-85H593c-26 0-26-40 0-40h442c8-31 21-59 38-85zm-30 250H656v77h429c-18-23-32-49-42-77zm-582 0v163c93-61 61-61 155 0v-163zm-118-290V41c-102 10-181 96-181 201v1037c37-50 96-82 163-82z" opacity="1" data-original="url(#a)" class=""></path></g></svg>