<?xml version="1.0" encoding="UTF-8"?><svg id="Layer_1" xmlns="http://www.w3.org/2000/svg" xmlns:xlink="http://www.w3.org/1999/xlink" viewBox="0 0 479.91 505"><defs><style>.cls-1{fill:url(#linear-gradient-2);}.cls-2{fill:url(#linear-gradient-3);}.cls-3{fill:url(#linear-gradient);}</style><linearGradient id="linear-gradient" x1="0" y1="252.5" x2="479.91" y2="252.5" gradientUnits="userSpaceOnUse"><stop offset="0" stop-color="#ff8807"/><stop offset="1" stop-color="#ed5107"/></linearGradient><linearGradient id="linear-gradient-2" x1="274.63" y1="238.16" x2="308.63" y2="238.16" gradientTransform="translate(-24.52 58.16) scale(1.06 .77)" xlink:href="#linear-gradient"/><linearGradient id="linear-gradient-3" x1="297" y1="214.03" x2="331" y2="214.03" gradientTransform="translate(-145.19 79.38) scale(1.06 .75)" xlink:href="#linear-gradient"/></defs><path class="cls-3" d="M239.95,40c53.02,0,102.98,21.84,140.68,61.51,18.54,19.51,33.11,42.26,43.31,67.62,10.6,26.37,15.97,54.41,15.97,83.37s-5.37,57-15.97,83.37c-10.19,25.36-24.76,48.11-43.31,67.62-37.69,39.67-87.65,61.51-140.68,61.51s-102.98-21.84-140.68-61.51c-18.54-19.51-33.11-42.26-43.31-67.62-10.6-26.37-15.97-54.41-15.97-83.37s5.37-57,15.97-83.37c10.19-25.36,24.76-48.11,43.31-67.62,37.69-39.67,87.65-61.51,140.68-61.51M239.95,0C107.43,0,0,113.05,0,252.5s107.43,252.5,239.95,252.5,239.95-113.05,239.95-252.5S372.48,0,239.95,0h0Z"/><rect class="cls-1" x="267.15" y="154.61" width="36.11" height="172.7" rx="6.83" ry="6.83" transform="translate(-86.85 272.24) rotate(-45)"/><rect class="cls-2" x="170.24" y="155.86" width="36.11" height="169.47" rx="6.83" ry="6.83" transform="translate(151.3 543.87) rotate(-135)"/></svg>