<?xml version="1.0" encoding="UTF-8"?><svg id="Layer_1" xmlns="http://www.w3.org/2000/svg" xmlns:xlink="http://www.w3.org/1999/xlink" viewBox="0 0 479.91 505"><defs><style>.cls-1{fill:url(#linear-gradient);}.cls-1,.cls-2,.cls-3,.cls-4{stroke-width:0px;}.cls-2{fill:url(#linear-gradient-2);}.cls-3{fill:url(#linear-gradient-3);}.cls-4{fill:transparent;}</style><linearGradient id="linear-gradient" x1="0" y1="252.5" x2="479.91" y2="252.5" gradientUnits="userSpaceOnUse"><stop offset="0" stop-color="#ff8807"/><stop offset="1" stop-color="#ed5107"/></linearGradient><linearGradient id="linear-gradient-2" x1="161.54" y1="202.23" x2="195.54" y2="202.23" gradientTransform="translate(-12.51 178.42) scale(1.06 .64)" xlink:href="#linear-gradient"/><linearGradient id="linear-gradient-3" x1="252.59" y1="242.42" x2="286.59" y2="242.42" gradientTransform="translate(2.5 -11.27) scale(1.06 1.12)" xlink:href="#linear-gradient"/></defs><ellipse class="cls-4" cx="239.95" cy="252.5" rx="239.95" ry="252.5"/><path class="cls-1" d="M239.95,40c53.02,0,102.98,21.84,140.68,61.51,18.54,19.51,33.11,42.26,43.31,67.62,10.6,26.37,15.97,54.41,15.97,83.37s-5.37,57-15.97,83.37c-10.19,25.36-24.76,48.11-43.31,67.62-37.69,39.67-87.65,61.51-140.68,61.51s-102.98-21.84-140.68-61.51c-18.54-19.51-33.11-42.26-43.31-67.62-10.6-26.37-15.97-54.41-15.97-83.37s5.37-57,15.97-83.37c10.19-25.36,24.76-48.11,43.31-67.62,37.69-39.67,87.65-61.51,140.68-61.51M239.95,0C107.43,0,0,113.05,0,252.5s107.43,252.5,239.95,252.5,239.95-113.05,239.95-252.5S372.48,0,239.95,0h0Z"/><rect class="cls-2" x="159.05" y="235.9" width="36.11" height="144.14" rx="6.83" ry="6.83" transform="translate(-173.7 251.85) rotate(-51.01)"/><rect class="cls-3" x="270.76" y="133.73" width="36.11" height="251.12" rx="6.83" ry="6.83" transform="translate(227.48 -123.96) rotate(38.99)"/></svg>