<svg xmlns="http://www.w3.org/2000/svg" version="1.1" xmlns:xlink="http://www.w3.org/1999/xlink" width="512" height="512" x="0" y="0" viewBox="0 0 1707 1707" style="enable-background:new 0 0 512 512" xml:space="preserve" fill-rule="evenodd" class=""><g><linearGradient id="a" x1="279.394" x2="1427.26" y1="1280.1" y2="426.567" gradientUnits="userSpaceOnUse"><stop stop-opacity="1" stop-color="#fff0ff" offset="0.0015367320796072046"></stop><stop stop-opacity="1" stop-color="#9e5481" offset="0.5104716163155164"></stop><stop stop-opacity="1" stop-color="#7b315e" offset="1"></stop></linearGradient><path fill="url(#a)" d="M530 1210c-9 0-17-7-17-17V920c0-9 8-17 17-17h803c10 0 17 8 17 17v273c0 10-7 17-17 17zm-280 267V140C250 64 314 0 390 0h1050c9 0 17 7 17 17v1606c0 10-8 17-17 17H734c0 23 4 57-8 64l-16 1-80-34-80 34c-11 5-23-2-23-15v-50H390c-77 0-140-64-140-143zM440 33v1300h983V33zm-17 1334h-33c-58 0-107 50-107 110v20c0 59 49 110 107 110h137v-124h-57c-22 0-22-33 0-33h320c22 0 22 33 0 33h-56v124h689v-104h-270c-22 0-22-33 0-33h270v-103zM390 33c-58 0-107 49-107 107v1244c35-42 73-51 124-51V33zm310 1594v-144H560v182l64-27c4-2 9-2 13 0l63 27zm633-1164H530c-9 0-17-7-17-16V173c0-9 8-16 17-16h803c10 0 17 7 17 16v274c0 9-7 16-17 16zm-703-33h603L932 327zm687-7V196L983 310zm-84-233H630l302 102zm-686 6v227l333-113zm393 641H540c-9 0-17-8-17-17V546c1-9 8-16 17-16h401c8 0 16 7 16 17v273c0 9-8 17-17 17zm-346-34h292L740 703zm329-14V578L769 683zm-37-226H594l146 100zm-329 15v211l154-106zm766 2h-280c-22 0-22-33 0-33h280c22 0 22 33 0 33zm0 120h-210c-22 0-22-33 0-33h210c22 0 22 33 0 33zm0 120h-210c-22 0-22-33 0-33h210c22 0 22 33 0 33zm-776 350 333-113-333-114zm83-233 302 102 301-102zm687 6-334 114 334 113zm-84 234-301-103-302 103z" opacity="1" data-original="url(#a)"></path></g></svg>