<svg xmlns="http://www.w3.org/2000/svg" version="1.1" xmlns:xlink="http://www.w3.org/1999/xlink" width="512" height="512" x="0" y="0" viewBox="0 0 24 24" style="enable-background:new 0 0 512 512" xml:space="preserve" class=""><g><linearGradient id="a" x1="21.64" x2="2.2" y1=".36" y2="23.84" gradientUnits="userSpaceOnUse"><stop stop-opacity="1" stop-color="#ff981a" offset="0"></stop><stop stop-opacity="1" stop-color="#ed5107" offset="1"></stop></linearGradient><g fill="url(#a)"><path d="M12 1a11 11 0 1 0 11 11A11 11 0 0 0 12 1zm0 20a9 9 0 1 1 9-9 9 9 0 0 1-9 9z" fill="" opacity="1"></path><path d="M16.24 7.76a1 1 0 0 0-1.41 0L12 10.59 9.17 7.76a1 1 0 0 0-1.41 1.41L10.59 12l-2.83 2.83a1 1 0 0 0 0 1.41 1 1 0 0 0 1.41 0L12 13.41l2.83 2.83a1 1 0 0 0 1.41 0 1 1 0 0 0 0-1.41L13.41 12l2.83-2.83a1 1 0 0 0 0-1.41z" fill="" opacity="1"></path></g></g></svg>