<?xml version="1.0" encoding="UTF-8"?><svg id="Layer_1" xmlns="http://www.w3.org/2000/svg" xmlns:xlink="http://www.w3.org/1999/xlink" viewBox="0 0 512 512"><defs><style>.cls-1{fill:url(#linear-gradient);}.cls-1,.cls-2,.cls-3,.cls-4,.cls-5{stroke-width:0px;}.cls-2{fill:url(#linear-gradient-2);}.cls-3{fill:url(#linear-gradient-3);}.cls-4{fill:transparent;}.cls-5{fill:url(#linear-gradient-4);}</style><linearGradient id="linear-gradient" x1="16.07" y1="255.5" x2="495.97" y2="255.5" gradientUnits="userSpaceOnUse"><stop offset="0" stop-color="#ff8807"/><stop offset="1" stop-color="#ed5107"/></linearGradient><linearGradient id="linear-gradient-2" x1="234.15" y1="239.16" x2="293.31" y2="239.16" gradientTransform="translate(182.62 -123.93) rotate(31.86) scale(1 1.21)" xlink:href="#linear-gradient"/><linearGradient id="linear-gradient-3" x1="130.68" y1="362.4" x2="193.89" y2="401.68" gradientTransform="translate(213.28 94.78) rotate(27.91) scale(.62 .71) skewX(-1.01)" xlink:href="#linear-gradient"/><linearGradient id="linear-gradient-4" x1="345.25" y1="-25.68" x2="369.31" y2="22.38" gradientTransform="translate(578.78 290.14) rotate(-148.14) scale(.81 1.13)" xlink:href="#linear-gradient"/></defs><ellipse class="cls-4" cx="256.02" cy="255.5" rx="239.95" ry="252.5"/><path class="cls-1" d="M256.02,43c53.02,0,102.98,21.84,140.68,61.51,18.54,19.51,33.11,42.26,43.31,67.62,10.6,26.37,15.97,54.41,15.97,83.37s-5.37,57-15.97,83.37c-10.19,25.36-24.76,48.11-43.31,67.62-37.69,39.67-87.65,61.51-140.68,61.51s-102.98-21.84-140.68-61.51c-18.54-19.51-33.11-42.26-43.31-67.62-10.6-26.37-15.97-54.41-15.97-83.37s5.37-57,15.97-83.37c10.19-25.36,24.76-48.11,43.31-67.62,37.69-39.67,87.65-61.51,140.68-61.51M256.02,3C123.5,3,16.07,116.05,16.07,255.5s107.43,252.5,239.95,252.5,239.95-113.05,239.95-252.5S388.54,3,256.02,3h0Z"/><path class="cls-2" d="M172.48,353.19l33.96,20.88c4.29,2.64,9.93,1.34,12.6-2.91l118.78-189.14c2.67-4.25,1.35-9.83-2.94-12.47l-33.96-20.88c-4.29-2.64-9.93-1.34-12.6,2.91l-118.78,189.14c-2.67,4.25-1.35,9.83,2.94,12.47Z"/><path class="cls-3" d="M155.71,406.44l3.91-44.88c.34-3.91,4.68-6.1,8.03-4.04l35.02,21.54c3.37,2.08,3.35,6.99-.05,9.03l-38.93,23.34c-3.7,2.22-8.35-.69-7.98-4.99Z"/><path class="cls-5" d="M331.33,112.81l23.94,14.73c5.68,3.5,7.43,10.89,3.9,16.52l-12.11,19.28c-1.61,2.57-5.02,3.36-7.62,1.76l-35.13-21.61c-2.6-1.6-3.39-4.97-1.78-7.54l12.11-19.28c3.53-5.63,11.01-7.35,16.69-3.86Z"/></svg>