<?xml version="1.0" encoding="UTF-8"?><svg id="Layer_1" xmlns="http://www.w3.org/2000/svg" xmlns:xlink="http://www.w3.org/1999/xlink" width="512" height="512" viewBox="0 0 512 512"><defs><style>.cls-1{fill:url(#linear-gradient);}.cls-1,.cls-2,.cls-3,.cls-4,.cls-5,.cls-6,.cls-7{stroke-width:0px;}.cls-2{fill:url(#linear-gradient-6);}.cls-3{fill:url(#linear-gradient-5);}.cls-4{fill:url(#linear-gradient-2);}.cls-5{fill:url(#linear-gradient-3);}.cls-6{fill:transparent;}.cls-7{fill:url(#linear-gradient-4);}</style><linearGradient id="linear-gradient" x1="0" y1="150" x2="300" y2="150" gradientUnits="userSpaceOnUse"><stop offset="0" stop-color="#ff8807"/><stop offset="1" stop-color="#ed5107"/></linearGradient><linearGradient id="linear-gradient-2" x1="87.67" y1="201.06" x2="128.5" y2="220.4" xlink:href="#linear-gradient"/><linearGradient id="linear-gradient-3" x1="111.13" y1="116.78" x2="203.1" y2="160.35" gradientTransform="translate(-8.12 10.36)" xlink:href="#linear-gradient"/><linearGradient id="linear-gradient-4" x1="104.74" y1="175.2" x2="193.04" y2="124.56" xlink:href="#linear-gradient"/><linearGradient id="linear-gradient-5" x1="178.04" y1="107.23" x2="217.44" y2="84.64" gradientTransform="translate(79.32 -97.62) rotate(34.65)" xlink:href="#linear-gradient"/><linearGradient id="linear-gradient-6" x1="177.57" y1="74.78" x2="200.17" y2="113.91" xlink:href="#linear-gradient"/></defs><circle class="cls-6" cx="150" cy="150" r="150"/><path class="cls-1" d="M150,18c35.26,0,68.41,13.73,93.34,38.66,24.93,24.93,38.66,58.08,38.66,93.34s-13.73,68.41-38.66,93.34c-24.93,24.93-58.08,38.66-93.34,38.66s-68.41-13.73-93.34-38.66c-24.93-24.93-38.66-58.08-38.66-93.34s13.73-68.41,38.66-93.34c24.93-24.93,58.08-38.66,93.34-38.66M150,0C67.16,0,0,67.16,0,150s67.16,150,150,150,150-67.16,150-150S232.84,0,150,0h0Z"/><path class="cls-6" d="M91.07,220.61l1.24-27.72c.3-6.78,7.83-10.69,13.55-7.03l23.38,14.94c5.72,3.65,5.34,12.13-.68,15.25l-24.63,12.78c-6.02,3.13-13.17-1.44-12.87-8.22Z"/><path class="cls-4" d="M101.14,184.45c-4.45,0-8.6,3.44-8.83,8.43l-1.24,27.72c-.24,5.28,4.05,9.22,8.81,9.22,1.35,0,2.73-.32,4.06-1l24.63-12.78c6.02-3.13,6.4-11.6.68-15.25l-23.38-14.94c-1.5-.96-3.13-1.4-4.72-1.4h0Z"/><rect class="cls-5" x="99.92" y="126.72" width="97.93" height="46.32" rx="9.83" ry="9.83" transform="translate(-59.06 187.16) rotate(-55.35)"/><path class="cls-7" d="M162.25,121.47l8.49,5.86-35.21,50.95-8.49-5.86,35.21-50.95M160.18,100.28c-3.12,0-6.19,1.48-8.1,4.24l-44.5,64.39c-3.09,4.47-1.97,10.59,2.5,13.68l21.93,15.15c1.71,1.18,3.65,1.74,5.58,1.74,3.12,0,6.19-1.48,8.1-4.24l44.5-64.39c3.09-4.47,1.97-10.59-2.5-13.68l-21.93-15.15c-1.71-1.18-3.65-1.74-5.58-1.74h0Z"/><path class="cls-3" d="M203.8,81.22l-9.27-6.41c-6.75-4.67-16.01-2.98-20.68,3.78l-8.32,12.03c-1.42,2.05-.9,4.86,1.15,6.27l26.31,18.18c2.05,1.42,4.86.9,6.27-1.15l8.32-12.03c4.67-6.75,2.98-16.01-3.78-20.68Z"/><path class="cls-2" d="M186.09,72.17c-4.72,0-9.36,2.24-12.24,6.42l-8.32,12.03c-1.42,2.05-.9,4.86,1.15,6.27l26.31,18.18c.78.54,1.68.8,2.56.8,1.43,0,2.84-.68,3.71-1.95l8.32-12.03c4.67-6.75,2.98-16.01-3.78-20.68l-9.27-6.41c-2.58-1.78-5.52-2.64-8.44-2.64h0Z"/></svg>