<svg xmlns="http://www.w3.org/2000/svg" version="1.1" xmlns:xlink="http://www.w3.org/1999/xlink" width="512" height="512" x="0" y="0" viewBox="0 0 512 512" style="enable-background:new 0 0 512 512" xml:space="preserve" class=""><g><path d="M256 512c-68.38 0-132.667-26.629-181.019-74.981C26.629 388.667 0 324.38 0 256S26.629 123.333 74.981 74.981C123.333 26.629 187.62 0 256 0c68.38 0 132.667 26.629 181.019 74.981C485.371 123.333 512 187.62 512 256s-26.629 132.667-74.981 181.019C388.667 485.371 324.38 512 256 512z" style="" fill="#ffffff" data-original="#ffffff" class=""></path><path d="M502.131 256c0 42.434-10.739 82.351-29.642 117.205-2.439 4.495-20.283 9.202-22.989 13.523-2.737 4.37 9.661 8.352 6.663 12.536-24.193 33.738-56.697 61.11-94.532 79.104-12.872 6.124-21.004-16.741-35.317-24.302-21.283-11.242-49.413-10.897-72.017-10.897-22.184 0-42.601 11.251-62.541 23.216-9.826 5.897-19.775 21.256-29.296 17.343-42.997-17.678-79.894-47.182-106.623-84.464-2.981-4.16 16.878-11.39 14.155-15.734-2.723-4.344-28.028-5.804-30.481-10.325C20.608 338.351 9.869 298.434 9.869 256c0-135.93 110.197-246.126 246.136-246.126 135.93 0 246.126 110.196 246.126 246.126z" style="" fill="#ff981a" data-original="#e05d4f" class="" opacity="1"></path><path d="M214.305 87.244h53.715V377.15h-53.715z" style="" fill="#008e7d" data-original="#6e72ff" class="" opacity="1"></path><path d="M226.926 108.055a3.677 3.677 0 1 1-7.353 0 3.677 3.677 0 0 1 7.353 0zM238.605 108.055a3.677 3.677 0 1 1-7.353 0 3.677 3.677 0 0 1 7.353 0zM250.285 108.055a3.677 3.677 0 1 1-7.353 0 3.677 3.677 0 0 1 7.353 0zM261.965 108.055a3.677 3.677 0 1 1-7.353 0 3.677 3.677 0 0 1 7.353 0zM226.926 176.516a3.677 3.677 0 1 1-7.353 0 3.677 3.677 0 0 1 7.353 0zM238.605 176.516a3.677 3.677 0 1 1-7.353 0 3.677 3.677 0 0 1 7.353 0zM250.285 176.516a3.677 3.677 0 1 1-7.353 0 3.677 3.677 0 0 1 7.353 0zM261.965 176.516a3.677 3.677 0 1 1-7.353 0 3.677 3.677 0 0 1 7.353 0zM214.305 117.656h53.715v49.766h-53.715z" style="" fill="#c18fff" data-original="#f8bdff" class="" opacity="1"></path><path d="M261.965 134.277h-41.867a1.482 1.482 0 0 1 0-2.962h41.867a1.48 1.48 0 1 1 0 2.962zM261.965 141.387h-41.867a1.482 1.482 0 0 1 0-2.962h41.867a1.48 1.48 0 1 1 0 2.962zM261.965 148.496h-41.867a1.482 1.482 0 0 1 0-2.962h41.867a1.48 1.48 0 1 1 0 2.962zM216.148 65.126v54.505l-2.435 5.398 2.435 5.134v28.965l-2.468 5.332 2.468 5.2v207.49h-76.623V169.66l4.641-5.299-4.641-5.233v-28.965l6.122-5.496-6.122-5.036V65.126z" style="" fill="#7b315e" data-original="#412945" class="" opacity="1"></path><path d="M139.525 119.631h76.624v10.533h-76.624zM139.525 159.128h76.624v10.533h-76.624zM212.725 96.986l-7.109-20.011-6.923 19.795-7.032-19.795-6.964 19.681-6.992-19.681-6.94 19.747-7.016-19.747-6.978 19.638-6.977-19.638-6.846 20.275 7.636 16.062 6.238-16.114 7.717 16.114 6.242-16.125 7.714 16.125 6.185-15.978 7.77 15.978 6.23-16.095 7.726 16.095zM212.725 344.274l-7.109-20.011-6.923 19.795-7.032-19.795-6.964 19.681-6.992-19.681-6.94 19.747-7.016-19.747-6.978 19.638-6.977-19.638-6.846 20.275 7.636 16.061 6.238-16.113 7.717 16.113 6.242-16.125 7.714 16.125 6.185-15.978 7.77 15.978 6.23-16.094 7.726 16.094z" style="" fill="#f9f871" data-original="#ffc569" class="" opacity="1"></path><path d="M166.066 182.582h26.331v120.737h-26.331z" style="" fill="#f7ede5" data-original="#f7ede5" class=""></path><path d="M359.208 99.196h23.467v276.477h-23.467z" style="" transform="rotate(2.476 371.343 237.705)" fill="#9e5481" data-original="#bb91ff" class="" opacity="1"></path><path d="M315.68 98.303h37.917V374.78H315.68z" style="" fill="#e163b0" data-original="#b7ba6a" class="" opacity="1"></path><path d="M327.793 162.156h12.639v147.191h-12.639z" style="" fill="#f7ede5" data-original="#f7ede5" class=""></path><path d="M266.704 49.327h51.346V377.15h-51.346z" style="" fill="#7b315e" data-original="#412945" class="" opacity="1"></path><path d="M293.562 97.15c-.392 0-.769-.156-1.047-.434l-16.588-16.589a1.481 1.481 0 0 1 0-2.094l16.588-16.588a1.481 1.481 0 0 1 2.094 0l16.588 16.588a1.481 1.481 0 0 1 0 2.094l-16.588 16.589a1.481 1.481 0 0 1-1.047.434zm-14.495-18.069 14.495 14.495 14.495-14.495-14.495-14.495-14.495 14.495z" style="" fill="#f9f871" data-original="#ffc569" class="" opacity="1"></path><path d="M288.822 74.341h9.479v9.479h-9.479z" style="" transform="rotate(90 293.562 79.081)" fill="#f9f871" data-original="#ffc569" class="" opacity="1"></path><path d="M273.287 109.625h9.479v9.479h-9.479z" style="" transform="rotate(134.999 278.028 114.364)" fill="#f9f871" data-original="#ffc569" class="" opacity="1"></path><path d="M288.033 109.625h9.479v9.479h-9.479z" style="" transform="rotate(134.999 292.774 114.364)" fill="#f9f871" data-original="#ffc569" class="" opacity="1"></path><path d="M302.778 109.625h9.479v9.479h-9.479z" style="" transform="rotate(134.999 307.52 114.363)" fill="#f9f871" data-original="#ffc569" class="" opacity="1"></path><path d="M273.287 308.689h9.479v9.479h-9.479z" style="" transform="rotate(134.999 278.029 313.43)" fill="#f9f871" data-original="#ffc569" class="" opacity="1"></path><path d="M288.033 308.689h9.479v9.479h-9.479z" style="" transform="rotate(134.999 292.774 313.43)" fill="#f9f871" data-original="#ffc569" class="" opacity="1"></path><path d="M302.778 308.689h9.479v9.479h-9.479z" style="" transform="rotate(134.999 307.52 313.43)" fill="#f9f871" data-original="#ffc569" class="" opacity="1"></path><path d="M274.209 329.359h35.152v15.404h-35.152z" style="" fill="#f9f871" data-original="#ffc569" class="" opacity="1"></path><path d="M472.49 373.205a246.94 246.94 0 0 1-16.326 26.059H55.837a246.94 246.94 0 0 1-16.326-26.059H472.49z" style="" fill="#7b315e" data-original="#412945" class="" opacity="1"></path><path d="M303.568 345.026c-4.213-14.219-21.592-46.87-24.225-62.142-2.633-15.272-4.213-34.757-4.213-34.757-25.278-2.106-16.852 40.55-16.852 40.55l-31.663-36.534s-10.993-26.134-23.106-38.773c-12.112-12.639-16.852-2.107-16.852-2.107s13.692 34.231 15.799 37.917c2.107 3.686 15.833 31.003 15.833 31.003l-15.372-16.981s-10.993-32.453-22.052-40.879c-11.059-8.426-17.905 1.053-17.905 1.053l5.299 12.573c-1.82-2.643-2.412-4.892-4.773-6.78-7.899-6.319-14.745 0-14.745 0s14.219 44.763 18.958 53.189c4.74 8.426 25.805 33.177 25.805 33.177l-25.936-10.072s-9.413-12.573-23.106-21.526c-13.692-8.952-16.852-4.476-18.958-2.37-2.106 2.106 25.87 36.6 31.663 40.287 5.793 3.686 13.692 10.533 24.751 22.118 11.059 11.586 17.905 31.071 27.911 43.183 10.006 12.112 17.905 43.183 17.905 43.183l81.1-4.74c0 .001-1.053-66.353-5.266-80.572z" style="" fill="#ffa291" data-original="#ffa291" class=""></path><path d="M361.631 478.367c-32.011 15.231-67.822 23.759-105.626 23.759-33.116 0-64.703-6.544-93.545-18.399 2.941-5.853 6.12-10.769 9.456-13.888 16.316-15.28 42.128-24.233 42.128-24.233v-24.223l10.917-.681 83.654-5.261 6.011-.375 4.738 26.335s28.971 5.261 38.447 26.325c1.392 3.11 2.666 6.723 3.82 10.641z" style="" fill="#9e5481" data-original="#bb91ff" class="" opacity="1"></path><path d="M133.84 295.599c-.397 0-.801-.051-1.206-.157a1.48 1.48 0 1 1 .748-2.864c1.502.392 2.318-1.145 2.532-1.626.91-2.048.505-5.163-2.534-7.157-1.169-.767-2.823-1.586-4.056-1.135-1.165.427-1.601 1.867-1.606 1.882a1.486 1.486 0 0 1-1.828 1.012 1.474 1.474 0 0 1-1.024-1.81c.033-.118.82-2.877 3.397-3.849 1.925-.726 4.194-.248 6.742 1.425 4.284 2.811 5.062 7.578 3.616 10.835-.962 2.164-2.794 3.444-4.781 3.444zM227.709 250.783c-.937-2.385-8.809-21.89-21.218-36.781-5.228-6.273-10.053-9.163-14.37-8.585-4.656.624-6.723 5.044-6.809 5.231-.169.37-.178.792-.027 1.169.764 1.894 18.721 46.427 20.309 49.603.557 1.113 3.257 5.49 6.572 10.77l-8.408-10.589c-1.205-3.108-13.122-33.412-22.75-41.219-3.241-2.628-6.604-3.749-10.012-3.338-5.554.674-9.07 5.243-9.217 5.437-.312.413-.387.96-.195 1.442.255.638.759 1.901 1.45 3.626a15.672 15.672 0 0 0-3.818-1.892c-6.264-2.091-11.245 2.216-11.453 2.401a1.482 1.482 0 0 0-.427 1.574c1.732 5.25 16.988 51.387 19.41 54.885 2.367 3.419 26.665 34.555 27.699 35.879a1.479 1.479 0 0 0 2.078.257 1.48 1.48 0 0 0 .256-2.078c-.252-.324-25.279-32.393-27.598-35.742-1.193-1.724-7.086-18.57-12.81-35.499.051-.025.105-.039.154-.071 2.93-1.9 7.588-7.07 4.238-13.027-2.134-3.792-5.272-5.278-7.88-5.696 1.475-.503 3.352-.755 5.396-.073 4.876 1.626 7.277 5.881 7.298 5.919.1.183.233.335.387.456 6.03 14.968 16.073 39.63 17.654 41.805 2.108 2.898 25.9 31.757 26.912 32.984.293.356.716.539 1.143.539a1.48 1.48 0 0 0 1.142-2.422c-.247-.3-24.746-30.016-26.802-32.842-1.068-1.472-7.864-17.86-14.534-34.316 1.036-.561 3.17-1.984 4.274-4.646 1.066-2.57.897-5.552-.5-8.864-1.787-4.23-5.523-5.286-8.5-5.209 1.214-.858 2.786-1.67 4.625-1.888 2.563-.304 5.18.605 7.766 2.701 9.323 7.56 21.806 39.868 21.932 40.194.054.14.129.272.223.389l26.019 32.762a1.48 1.48 0 0 0 2.405-1.719c-6.895-10.765-20.258-31.77-21.479-34.214-.862-1.722-7.274-17.427-13.254-32.179.046-.028.097-.041.14-.074 2.405-1.843 5.993-7.008 2.361-13.364-1.677-2.935-3.655-4.652-5.879-5.104-.49-.1-.943-.116-1.37-.098.632-.447 1.393-.811 2.298-.928 3.177-.405 7.22 2.199 11.678 7.549 12.847 15.417 20.74 35.972 20.818 36.178.06.156.145.302.253.43l44.236 52.399a1.48 1.48 0 1 0 2.263-1.911l-44.079-52.211zm-69.529-15.095c2.383 4.236-1.402 7.675-2.79 8.743-1.516-4.502-3-8.946-4.36-13.053 1.595-.048 4.937.373 7.15 4.31zm14.343-7.458c1.071 2.538 1.242 4.739.507 6.544-.664 1.632-1.934 2.591-2.675 3.042a3480.437 3480.437 0 0 1-5.14-12.785c1.312-.281 5.597-.852 7.308 3.199zm18.543-15.944c1.317.29 2.648 1.556 3.851 3.662 2.633 4.608.065 7.93-1.094 9.094a8393.65 8393.65 0 0 1-4.976-12.31c.046-.026.094-.048.138-.079.036-.027.896-.624 2.081-.367zM277.778 269.241c-.247-.038-6.061-.998-7.242-8.252-1.201-7.376 5.104-11.432 5.378-11.605a1.48 1.48 0 0 0-1.563-2.515c-.338.21-8.262 5.237-6.738 14.596 1.232 7.57 6.916 10.314 9.749 10.707a1.476 1.476 0 0 0 1.663-1.254 1.483 1.483 0 0 0-1.247-1.677z" style="" fill="#7b315e" data-original="#412945" class="" opacity="1"></path><path d="M107.993 143.238H91.205l-1.672-1.672 4.192-4.716a1.678 1.678 0 1 0-2.509-2.229l-4.06 4.568-1.092-1.092c-.007-10.124.006-17.906.058-18.831a1.68 1.68 0 0 0-1.134-1.815 1.68 1.68 0 0 0-2.122 1.063c-.08.24-.173.547-.162 19.815l-.82.821-4.709-5.058a1.678 1.678 0 1 0-2.457 2.287l4.791 5.147-1.713 1.713H63.26a1.678 1.678 0 1 0 0 3.356h13.95l1.781 1.781-5.134 5.776a1.678 1.678 0 1 0 2.51 2.229l5.003-5.628 1.355 1.355c.012 5.904.031 12.839.056 21.023a1.679 1.679 0 0 0 1.678 1.673h.005a1.678 1.678 0 0 0 1.673-1.682c-.02-6.333-.038-13.654-.052-20.821l1.79-1.79 4.87 5.231c.331.355.779.534 1.229.534a1.68 1.68 0 0 0 1.228-2.821l-4.953-5.319 1.541-1.541h16.204a1.678 1.678 0 1 0-.001-3.357zM446.175 149.319h-16.788l-1.672-1.672 4.192-4.716a1.678 1.678 0 1 0-2.509-2.229l-4.06 4.568-1.092-1.092c-.007-10.124.006-17.907.057-18.831a1.68 1.68 0 0 0-1.134-1.815 1.68 1.68 0 0 0-2.122 1.063c-.08.24-.173.547-.162 19.815l-.82.821-4.709-5.058a1.678 1.678 0 1 0-2.457 2.287l4.792 5.147-1.713 1.713h-14.535a1.678 1.678 0 1 0 0 3.356h13.95l1.781 1.781-5.134 5.776a1.678 1.678 0 1 0 2.509 2.229l5.003-5.628 1.355 1.355c.013 5.904.031 12.838.056 21.023a1.679 1.679 0 0 0 1.678 1.673h.005a1.678 1.678 0 0 0 1.673-1.683c-.02-6.333-.038-13.654-.052-20.821l1.79-1.79 4.87 5.231c.331.355.78.534 1.229.534a1.68 1.68 0 0 0 1.228-2.821l-4.953-5.319 1.541-1.541h16.204a1.678 1.678 0 1 0-.001-3.356zM107.005 326.392H90.216l-1.672-1.672 4.192-4.716a1.678 1.678 0 1 0-2.509-2.229l-4.06 4.568-1.092-1.092c-.007-10.124.006-17.907.057-18.831a1.68 1.68 0 0 0-1.134-1.815 1.68 1.68 0 0 0-2.122 1.063c-.08.24-.173.547-.162 19.815l-.821.82-4.709-5.058a1.678 1.678 0 1 0-2.457 2.287l4.791 5.147-1.713 1.713H62.272a1.678 1.678 0 1 0 0 3.356h13.95l1.781 1.781-5.134 5.776a1.677 1.677 0 0 0 1.254 2.792c.464 0 .924-.19 1.256-.563l5.003-5.628 1.355 1.355c.013 5.904.031 12.839.056 21.023a1.679 1.679 0 0 0 1.678 1.673h.005a1.678 1.678 0 0 0 1.673-1.682c-.02-6.333-.039-13.654-.052-20.821l1.79-1.79 4.87 5.231c.331.355.78.534 1.229.534a1.68 1.68 0 0 0 1.228-2.821l-4.952-5.32 1.541-1.541h16.204a1.678 1.678 0 1 0-.002-3.355zM448.313 305.708h-16.788l-1.672-1.672 4.192-4.716a1.678 1.678 0 1 0-2.509-2.229l-4.06 4.568-1.092-1.092c-.007-10.124.006-17.906.057-18.831a1.68 1.68 0 0 0-1.134-1.815 1.68 1.68 0 0 0-2.122 1.063c-.08.24-.173.547-.162 19.815l-.82.82-4.709-5.058a1.678 1.678 0 1 0-2.457 2.287l4.792 5.147-1.713 1.713H403.58a1.678 1.678 0 1 0 0 3.356h13.95l1.781 1.781-5.134 5.776a1.677 1.677 0 0 0 1.254 2.792c.464 0 .924-.19 1.255-.563l5.003-5.628 1.355 1.355c.013 5.904.031 12.838.056 21.023a1.679 1.679 0 0 0 1.678 1.673h.005a1.678 1.678 0 0 0 1.673-1.682c-.02-6.333-.039-13.654-.052-20.821l1.79-1.79 4.87 5.231c.331.355.78.534 1.229.534a1.68 1.68 0 0 0 1.228-2.821l-4.953-5.319 1.541-1.541h16.204a1.678 1.678 0 1 0 0-3.356z" style="" fill="#f7ede5" data-original="#f7ede5" class=""></path></g></svg>