<svg id="Glyph_gradient" enable-background="new 0 0 512 512" viewBox="0 0 512 512" xmlns="http://www.w3.org/2000/svg" xmlns:xlink="http://www.w3.org/1999/xlink"><linearGradient id="SVGID_1_" gradientUnits="userSpaceOnUse" x1="75.519" x2="436.481" y1="412.481" y2="51.519"><stop offset="0" stop-color="#5ebce5"/><stop offset=".5232" stop-color="#b678e6"/><stop offset="1" stop-color="#e25b61"/></linearGradient><path d="m284.898 392c2.257 14.369 8.001 28.108 17 40h-91.796c9.008-11.893 14.781-25.629 17.048-40zm195.102-292v228h-448v-228c0-6.617 5.383-12 12-12h152.995l-40.391 59.032c-3.88 5.671-4.299 12.969-1.093 19.045 3.205 6.077 9.465 9.853 16.335 9.853h168.307c6.87 0 13.13-3.775 16.335-9.853 3.206-6.076 2.787-13.374-1.093-19.045l-40.39-59.032h152.995c6.617 0 12 5.383 12 12zm-384 124c30.879 0 56-25.121 56-56s-25.121-56-56-56-56 25.121-56 56 25.121 56 56 56zm104 48c0-4.418-3.582-8-8-8h-8v-24c0-4.418-3.582-8-8-8s-8 3.582-8 8v24h-28.456l19.946-53.191c1.552-4.137-.544-8.748-4.682-10.299-4.131-1.553-8.747.544-10.299 4.682l-24 64c-.922 2.456-.58 5.209.915 7.365 1.494 2.156 3.951 3.443 6.575 3.443h40v24c0 4.418 3.582 8 8 8s8-3.582 8-8v-24h8c4.419 0 8.001-3.582 8.001-8zm96-47.875c0-13.303-10.822-24.125-24.125-24.125h-31.75c-13.303 0-24.125 10.822-24.125 24.125v63.75c0 13.303 10.822 24.125 24.125 24.125h31.75c13.303 0 24.125-10.822 24.125-24.125zm96 47.875c0-4.418-3.582-8-8-8h-8v-24c0-4.418-3.582-8-8-8s-8 3.582-8 8v24h-28.456l19.946-53.191c1.552-4.137-.544-8.748-4.682-10.299-4.131-1.553-8.748.544-10.299 4.682l-24 64c-.922 2.456-.58 5.209.915 7.365 1.494 2.156 3.951 3.443 6.575 3.443h40v24c0 4.418 3.582 8 8 8s8-3.582 8-8v-24h8c4.419 0 8.001-3.582 8.001-8zm80-104c0-30.879-25.121-56-56-56s-56 25.121-56 56 25.121 56 56 56 56-25.121 56-56zm-440 176h448v20c0 6.617-5.383 12-12 12h-424c-6.617 0-12-5.383-12-12zm400 16c0 4.418 3.582 8 8 8h16c4.418 0 8-3.582 8-8s-3.582-8-8-8h-16c-4.418 0-8 3.582-8 8zm-40 0c0 4.418 3.582 8 8 8h16c4.418 0 8-3.582 8-8s-3.582-8-8-8h-16c-4.418 0-8 3.582-8 8zm-40 0c0 4.418 3.582 8 8 8h16c4.418 0 8-3.582 8-8s-3.582-8-8-8h-16c-4.418 0-8 3.582-8 8zm-144 0c0 4.418 3.582 8 8 8h80c4.418 0 8-3.582 8-8s-3.582-8-8-8h-80c-4.418 0-8 3.582-8 8zm-111.985 0c0 4.418 3.587 8 8.005 8 4.419 0 8-3.582 8-8s-3.581-8-8-8h-.01c-4.418 0-7.995 3.582-7.995 8zm-24 0c0 4.418 3.587 8 8.005 8 4.419 0 8-3.582 8-8s-3.581-8-8-8h-.01c-4.418 0-7.995 3.582-7.995 8zm-24 0c0 4.418 3.587 8 8.005 8 4.419 0 8-3.582 8-8s-3.581-8-8-8h-.01c-4.418 0-7.995 3.582-7.995 8zm87.985-192c0 22.056-17.944 40-40 40s-40-17.944-40-40 17.944-40 40-40 40 17.944 40 40zm-28.686 0 10.343-10.343c3.124-3.125 3.124-8.189 0-11.314-3.125-3.123-8.189-3.123-11.314 0l-10.343 10.343-10.343-10.343c-3.125-3.123-8.189-3.123-11.314 0-3.124 3.125-3.124 8.189 0 11.314l10.343 10.343-10.343 10.343c-3.124 3.125-3.124 8.189 0 11.314 1.562 1.562 3.609 2.343 5.657 2.343s4.095-.781 5.657-2.343l10.343-10.343 10.343 10.343c1.562 1.562 3.609 2.343 5.657 2.343s4.095-.781 5.657-2.343c3.124-3.125 3.124-8.189 0-11.314zm164.561 48h-31.75c-4.48 0-8.125 3.645-8.125 8.125v63.75c0 4.48 3.645 8.125 8.125 8.125h31.75c4.48 0 8.125-3.645 8.125-8.125v-63.75c0-4.48-3.645-8.125-8.125-8.125zm184.125-48c0 22.056-17.944 40-40 40s-40-17.944-40-40 17.944-40 40-40 40 17.944 40 40zm-28.686 0 10.343-10.343c3.124-3.125 3.124-8.189 0-11.314-3.125-3.123-8.189-3.123-11.314 0l-10.343 10.343-10.343-10.343c-3.125-3.123-8.189-3.123-11.314 0-3.124 3.125-3.124 8.189 0 11.314l10.343 10.343-10.343 10.343c-3.124 3.125-3.124 8.189 0 11.314 1.562 1.562 3.609 2.343 5.657 2.343s4.095-.781 5.657-2.343l10.343-10.343 10.343 10.343c1.562 1.562 3.609 2.343 5.657 2.343s4.095-.781 5.657-2.343c3.124-3.125 3.124-8.189 0-11.314zm-257.504-11.933 84.153-122.993c.64-.934 1.551-1.074 2.037-1.074s1.397.14 2.037 1.074l84.153 122.993c.731 1.069.405 2.054.146 2.546-.26.491-.889 1.316-2.184 1.316h-168.305c-1.295 0-1.924-.825-2.184-1.316-.259-.492-.585-1.476.147-2.546zm94.21-12.067c0-4.418-3.581-8-8-8h-.01c-4.418 0-7.995 3.582-7.995 8s3.587 8 8.005 8 8-3.582 8-8zm-16.02-24c0 4.418 3.582 8 8 8s8-3.582 8-8v-64c0-4.418-3.582-8-8-8s-8 3.582-8 8zm86.135 328h-156.27c-7.236 0-13.637 4.612-15.925 11.479l-6.84 20.521h201.8l-6.841-20.521c-2.288-6.867-8.688-11.479-15.924-11.479z" fill="url(#SVGID_1_)"/></svg>