<svg xmlns="http://www.w3.org/2000/svg" version="1.1" xmlns:xlink="http://www.w3.org/1999/xlink" width="512" height="512" x="0" y="0" viewBox="0 0 1707 1707" style="enable-background:new 0 0 512 512" xml:space="preserve" fill-rule="evenodd"><g><linearGradient id="a" x1="853.331" x2="853.331" y1="73.587" y2="1633.07" gradientUnits="userSpaceOnUse"><stop stop-opacity="1" stop-color="#ff8807" offset="0"></stop><stop stop-opacity="1" stop-color="#ffc278" offset="0.51"></stop><stop stop-opacity="1" stop-color="#ff981a" offset="1"></stop></linearGradient><path fill="url(#a)" d="M661 1103H121c77-74 79-205 0-280h497l-2 7c-24 90-11 190 45 273zm785-907c35 0 64 29 64 64s-29 64-64 64c-31 0-31 46 0 46 61 0 110-49 110-110s-49-110-110-110c-31 0-31 46 0 46zm-969 35h818c31 0 31-46 0-46H477c-31 0-31 46 0 46zm0 105h818c31 0 31-47 0-47H477c-31 0-31 47 0 47zm55 349c-66 0-99-79-52-126 13-13 31-21 52-21 30 0 30-47 0-47-107 0-161 130-85 206 21 21 52 35 85 35 30 0 30-47 0-47zm126 2c31 0 31-46 0-46h-53c-30 0-30 46 0 46zm548 0h218c31 0 31-46 0-46h-218c-30 0-30 46 0 46zm187 276c0 35-28 64-63 64-31 0-31 46 0 46 61 0 110-49 110-110s-49-110-110-110c-31 0-31 46 0 46 35 0 63 29 63 64zm-824 29H354c-31 0-31 47 0 47h215c31 0 31-47 0-47zm-215-58h205c31 0 31-47 0-47H354c-31 0-31 47 0 47zm281-158H480c-96 0-151-179-76-284 20-28 47-45 76-45h1118c-77 84-77 245 0 329h-354c-50-109-154-182-274-193h454c31 0 31-47 0-47H605c-30 0-30 47 0 47h304c-119 10-224 84-274 193zm230 420c-152-41-246-199-204-354 39-147 195-247 354-204 87 23 158 86 192 168l1 4c24 59 26 123 11 181-12 44-33 84-64 118l-2 3c-72 79-183 112-288 84zm354-93c54-82 71-185 43-280h93c109 0 168 151 87 240-22 24-53 40-87 40zm-38 47h174c47 0 90-22 122-56 69-76 65-200-9-271h215c26 0 36-41 1-48-89-16-130-179-67-277 18-28 42-46 68-51 30-2 28-47-2-47h-92c118-114 43-326-113-326H146c-30 0-31 45-1 47 30 4 58 20 78 45 67 82 24 218-75 233-39 6-27 48-2 48h235c-78 84-78 245 0 329H23c-30 0-31 46-1 48 68 8 111 74 111 139 0 67-43 129-108 139-39 6-27 48-2 48h675c100 104 258 132 389 68l46 80-31 18c-18 11-10 33-9 32 53 91 105 182 158 273 6 12 21 15 32 9l102-59c14-7 15-23 8-35-52-90-104-180-156-271-11-18-33-10-32-8l-32 18-46-80c20-14 38-29 54-45zm297-750H244c78-75 77-206 0-280h1234c110 0 166 152 87 240-23 25-54 40-87 40zm-333 945 63-36 135 233-63 36z" opacity="1" data-original="url(#a)"></path></g></svg>