<svg xmlns="http://www.w3.org/2000/svg" version="1.1" xmlns:xlink="http://www.w3.org/1999/xlink" width="512" height="512" x="0" y="0" viewBox="0 0 512 512" style="enable-background:new 0 0 512 512" xml:space="preserve"><g><linearGradient id="a" x1="256" x2="256" y1="463" y2="108.419" gradientUnits="userSpaceOnUse"><stop stop-opacity="1" stop-color="#ed5107" offset="0.322"></stop><stop stop-opacity="1" stop-color="#ed5107" offset="0.466"></stop><stop stop-opacity="1" stop-color="#ff8807" offset="0.5027332134037913"></stop><stop stop-opacity="1" stop-color="#ff8807" offset="0.752"></stop><stop stop-opacity="1" stop-color="#ff981a" offset="0.898"></stop></linearGradient><linearGradient xlink:href="#a" id="b" x1="439.614" x2="439.614" y1="463" y2="108.419"></linearGradient><linearGradient xlink:href="#a" id="c" x1="239.853" x2="239.853" y1="463" y2="108.419"></linearGradient><linearGradient xlink:href="#a" id="d" x1="263.514" x2="263.514" y1="463" y2="108.419"></linearGradient><linearGradient xlink:href="#a" id="e" x1="265.982" x2="265.982" y1="463" y2="108.419"></linearGradient><path fill="url(#a)" d="M484.5 208.738h-4.208V42.547a27.6 27.6 0 0 0-27.539-27.589H82.717A24.339 24.339 0 0 0 67.974 10H52.3a24.541 24.541 0 0 0-24.5 24.535v19.85h-.3a14.015 14.015 0 0 0-14 14v24.1a14.015 14.015 0 0 0 14 14h.3v26.7h-.3a14.015 14.015 0 0 0-14 14v24.1a14.015 14.015 0 0 0 14 14h.3v142.2h-.3a14.016 14.016 0 0 0-14 14v24.1a14.015 14.015 0 0 0 14 14h.3v26.7h-.3a14.016 14.016 0 0 0-14 14v24.1a14.015 14.015 0 0 0 14 14h.3v19.083A24.542 24.542 0 0 0 52.3 502h15.674a24.355 24.355 0 0 0 15.919-5.913H452.753a27.6 27.6 0 0 0 27.539-27.587V298.209h4.208a14.015 14.015 0 0 0 14-14v-61.471a14.015 14.015 0 0 0-14-14zM39.8 34.535A12.528 12.528 0 0 1 52.3 22h15.674a12.528 12.528 0 0 1 12.492 12.535v19.85H39.8zM27.5 94.486a2 2 0 0 1-2-2v-24.1a2 2 0 0 1 2-2h65.268a2 2 0 0 1 2 2v24.1a2 2 0 0 1-2 2zm52.966 12v26.7H39.8v-26.7zM27.5 173.285a2 2 0 0 1-2-2v-24.1a2 2 0 0 1 2-2h65.268a2 2 0 0 1 2 2v24.1a2 2 0 0 1-2 2zm0 194.3a2 2 0 0 1-2-2v-24.1a2 2 0 0 1 2-2h65.268a2 2 0 0 1 2 2v24.1a2 2 0 0 1-2 2zm52.966 12v26.7H39.8v-26.7zm0 97.882A12.528 12.528 0 0 1 67.974 490H52.3a12.528 12.528 0 0 1-12.5-12.535v-19.083h40.666zM27.5 446.382a2 2 0 0 1-2-2v-24.1a2 2 0 0 1 2-2h65.268a2 2 0 0 1 2 2v24.1a2 2 0 0 1-2 2zM468.292 468.5a15.582 15.582 0 0 1-15.539 15.589H340.539v-46.36a6 6 0 0 0-12 0v46.358h-41.847v-51.756a6 6 0 0 0-12 0v51.756h-41.847v-28.008a6 6 0 0 0-12 0v28.008H91.552a24.489 24.489 0 0 0 .914-6.622v-19.083h.3a14.015 14.015 0 0 0 14-14v-24.1a14.016 14.016 0 0 0-14-14h-.3v-26.7h.3a14.015 14.015 0 0 0 14-14v-24.1a14.016 14.016 0 0 0-14-14h-.3v-81.8a6 6 0 0 0-12 0v81.8H39.8v-27.39h2.073a6 6 0 0 0 0-12H39.8V185.285h40.666v20.393a6 6 0 0 0 12 0v-20.393h.3a14.015 14.015 0 0 0 14-14v-24.1a14.015 14.015 0 0 0-14-14h-.3v-26.7h.3a14.015 14.015 0 0 0 14-14v-24.1a14.015 14.015 0 0 0-14-14h-.3v-19.85a24.472 24.472 0 0 0-1.2-7.577h129.58V73.43a6 6 0 0 0 12 0V26.958h41.847v51.869a6 6 0 0 0 12 0V26.958h41.847V55.08a6 6 0 0 0 12 0V26.958h112.213a15.582 15.582 0 0 1 15.539 15.589v81.536h-5.449a6 6 0 0 0 0 12h5.449v72.655h-31.2a41.932 41.932 0 0 0-41.884 41.885v5.7a41.932 41.932 0 0 0 41.884 41.885h31.2zM486.5 284.209a2 2 0 0 1-2 2h-47.408a29.918 29.918 0 0 1-29.884-29.885v-5.7a29.918 29.918 0 0 1 29.884-29.885H484.5a2 2 0 0 1 2 2z" opacity="1" data-original="url(#a)"></path><path fill="url(#b)" d="M439.614 232.278a21.2 21.2 0 1 0 21.161 21.2 21.2 21.2 0 0 0-21.161-21.2zm0 30.391a9.2 9.2 0 1 1 9.161-9.195 9.188 9.188 0 0 1-9.161 9.195z" opacity="1" data-original="url(#b)"></path><path fill="url(#c)" d="M239.853 228.982a21.976 21.976 0 1 0 21.939 21.976 21.983 21.983 0 0 0-21.939-21.976zm0 31.952a9.976 9.976 0 1 1 9.939-9.976 9.97 9.97 0 0 1-9.939 9.976z" opacity="1" data-original="url(#c)"></path><path fill="url(#d)" d="M377.921 267.226c-18.234 5.2-44.752-14.015-53.546-21.955-33.761-33.095-68.347-46.077-102.8-38.583-27.79 6.046-47.92 24.013-57.594 32.647-.688.614-1.323 1.182-1.906 1.695-1.548.781-7.1.81-9.79.824-1.881.01-3.658.02-5.243.129a6 6 0 1 0 .828 11.972c1.2-.083 2.794-.092 4.478-.1a66.078 66.078 0 0 0 9.864-.534 134.707 134.707 0 0 0 18.069 17.092v71.609l-14.5 16.638a16.981 16.981 0 0 0 12.728 28.14h.084a16.87 16.87 0 0 0 13.354-6.5l19.4-24.71a6 6 0 0 0 1.279-3.575l1.358-62.831q3.711 1.278 7.628 2.277a180.808 180.808 0 0 0 27.3 39.264c18.835 20.233 39.388 30.575 60.35 30.575a66.726 66.726 0 0 0 19.988-3.124c24.989-7.814 32.162-30.165 32.6-42a27.76 27.76 0 0 0 .474-5.092c0-12.677-9.212-22.989-20.535-22.989s-20.536 10.312-20.536 22.989 9.212 22.989 20.536 22.989c.579 0 1.143-.029 1.7-.07a33.018 33.018 0 0 1-17.819 12.721c-23.3 7.286-46.107-.781-67.79-23.974a166.1 166.1 0 0 1-21.2-28.81c.636.05 1.264.119 1.906.156 1.634.093 3.261.138 4.891.138 26.517 0 52.428-12.247 77.146-36.448 9.012 7.212 30.316 22.32 50.662 22.32a36.146 36.146 0 0 0 9.932-1.338 6 6 0 0 0-3.293-11.539zM341.79 322.07c-4.627 0-8.536-5.032-8.536-10.989s3.909-10.989 8.536-10.989 8.535 5.032 8.535 10.989c0 1.125-.24 10.989-8.535 10.989zm-168.765-74.717c5.787-5.152 15.008-13.135 26.909-19.667a45.944 45.944 0 0 0-6.768 23.838 41.118 41.118 0 0 0 3.351 15.654 126.826 126.826 0 0 1-23.492-19.825zm27.645 102.4-18.162 23.137a4.947 4.947 0 0 1-3.917 1.905h-.025a4.981 4.981 0 0 1-3.732-8.253l15.974-18.333a6 6 0 0 0 1.476-3.941V278.8c3.081 1.9 6.351 3.723 9.8 5.414zm58.512-69.224a74.147 74.147 0 0 1-19.83 1.587 77.714 77.714 0 0 1-19.422-3.663c-8.594-6.253-14.764-17.424-14.764-26.93 0-15.894 12.135-30.664 28.3-34.54a75.75 75.75 0 0 1 15.72.2c15.387 4.293 25.3 16.872 25.3 32.2-.005 11.192-4.053 25.124-15.304 31.147zm22.682-8.466a57.389 57.389 0 0 0 4.617-22.686 44.5 44.5 0 0 0-5.794-22.072 146.488 146.488 0 0 1 30.983 22.448 133.083 133.083 0 0 1-29.806 22.311z" opacity="1" data-original="url(#d)"></path><path fill="url(#e)" d="m381.364 176-16.235-1.207a104.531 104.531 0 0 1-41.488-11.978l-34.9-18.518c-.093-.049-.187-.1-.282-.14a110.247 110.247 0 0 0-100.995 4.126l-31.31 15.517v-40.45a6 6 0 1 0-12 0v88.75a6 6 0 0 0 8.974 5.211l40.125-22.894a98.25 98.25 0 0 1 90.147-3.757l29.9 13.908a88.3 88.3 0 0 0 35.807 8.271l32.588.606a6 6 0 0 0 6.108-6.208l-.889-25.466a6 6 0 0 0-5.55-5.771zm-32.031 24.843a76.386 76.386 0 0 1-30.971-7.154l-29.907-13.908a110.246 110.246 0 0 0-101.149 4.214l-31.152 17.774v-24.577l36.79-18.236c.105-.052.208-.107.309-.164a98.245 98.245 0 0 1 90-3.822l34.763 18.444a116.44 116.44 0 0 0 46.222 13.343l10.872.808.48 13.765z" opacity="1" data-original="url(#e)"></path></g></svg>